<svg width="520" height="509" viewBox="0 0 520 509" fill="none" xmlns="http://www.w3.org/2000/svg">
<path opacity="0.2" d="M445.044 422.987C445.281 420.391 448.058 418.062 450.112 416.64C452.51 414.976 453.419 414.973 456.346 415.034C461.769 415.145 466.608 415.447 469.582 420.513C472.003 424.636 474.881 428.036 477.607 431.943C482.017 438.256 485.765 444.761 490.378 450.978C490.931 451.723 493.519 455.644 493.906 455.921C494.174 456.113 494.875 456.185 495.174 456.529C495.024 453.47 494.962 450.392 495.019 447.326C495.075 444.023 495.185 440.643 495.327 437.333C495.369 436.351 495.827 433.515 495.699 432.81C495.666 432.627 494.115 429.929 493.897 429.58C489.657 422.79 484.621 416.914 479.172 411.1C475.15 406.807 471.986 401.814 468.681 397.092C468.122 396.29 467.938 395.55 467.622 394.652C464.811 386.674 461.139 374.918 467.413 367.678C468.738 366.151 471.89 365.466 473.794 365.951C477.299 366.841 481.045 375.647 482.463 378.792C487.957 390.986 491.03 404.049 495.697 416.532C495.965 416.751 496.592 419.692 496.756 419.654C496.872 419.626 497.004 417.824 497.024 417.571C497.428 412.298 497.725 407.021 497.716 401.75C497.702 390.789 497.329 378.678 500.177 368.044C501.34 363.705 503.445 363.719 507.224 362.241C511.526 360.563 514.758 358.567 519.582 359.083C520.314 359.16 520.969 359.521 521.382 360.117C522.825 362.208 524.427 366.223 524.562 368.732C524.966 376.138 523.816 384.847 521.684 391.959C520.54 395.766 517.532 399.288 515.523 402.72C514.763 404.015 514.15 405.471 513.416 406.785C509.312 414.147 504.959 421.423 500.307 428.441L499.572 437.144C500.784 434.643 502.287 432.053 503.905 429.777C506.993 425.432 510.713 420.768 514.04 416.559C516.902 412.938 519.458 410.481 522.749 407.315C528.655 401.631 533.375 394.499 540.626 390.34C548.408 385.876 554.97 383.619 562.696 389.749C565.373 391.873 566.283 393.34 566.515 396.828C566.763 400.627 564.241 405.906 561.885 408.862C558.944 412.553 555.148 416.9 551.9 420.339C549.928 422.424 547.722 424.42 545.462 426.206C547.759 425.022 550.185 424.487 552.741 425.113C554.922 425.646 556.625 427.182 558.425 428.393C559.461 429.092 561.136 429.658 561.537 430.864C562.557 433.914 562.47 438.883 561.458 441.911C559.766 446.985 557.656 448.485 554.368 452.289C552.473 454.477 551.614 455.652 549.14 457.38C543.216 461.514 536.208 464.118 530.274 468.31C526.579 470.925 523.599 472.364 519.752 474.563C516.661 476.332 513.681 478.528 510.546 480.288C508.072 481.68 505.289 482.701 502.668 483.799C502.555 483.943 502.558 485.509 502.589 485.784C502.651 486.372 503.71 490.021 503.575 490.218C503.532 490.281 503.227 490.243 503.191 490.345C503.151 490.462 503.332 491.598 503.363 491.84C503.897 495.902 504.781 499.917 505.589 503.929C510.433 499.87 515.379 495.913 520.48 492.161C524.444 489.247 528.61 486.638 532.771 484.012C534.347 483.019 538.855 479.834 540.352 479.567C543.877 478.941 550.756 479.831 554.343 480.632C555.176 480.818 556.074 481.212 556.857 481.345C557.637 481.478 558.453 481.428 559.266 481.553C563.811 482.238 568.723 485.54 571.994 488.593C572.404 488.975 575.017 491.618 575 491.926C574.989 492.161 571.164 493.653 570.732 494.097C565.568 496.739 560.255 497.136 554.702 498.272C550.53 499.126 546.211 500.577 542.07 501.242C540.307 501.525 538.268 501.464 536.573 501.83C535.638 502.03 534.717 502.512 533.584 502.756C530.881 503.338 528.118 503.505 525.393 503.951C523.189 504.311 521.048 504.902 518.868 505.343C514.724 506.18 510.569 506.885 506.518 508.099L510.216 524.938L505.891 526L501.258 505.149C499.05 504.811 497.024 503.757 494.962 502.964C489.544 500.873 484.031 498.785 479.034 495.81C471.591 491.382 464.924 485.809 458.464 480.116C457.326 479.113 455.705 477.807 454.883 476.587C453.063 473.889 450.866 470.337 449.504 467.409C448.245 464.697 448.052 463.33 447.971 460.358C447.855 456.071 447.586 451.327 451.137 448.238C452.682 446.89 454.23 446.854 456.227 446.951C454.261 445.446 452.583 443.813 451.075 441.863C449.942 440.402 448.793 438.752 448.129 437.033C447.595 435.658 447.132 434.319 446.572 432.957C445.635 430.667 445.171 428.341 445.044 425.865C445.002 425.036 444.971 423.796 445.044 422.987ZM501.651 475.988C502.08 475.228 502.555 474.479 503.041 473.753C506.281 468.89 509.625 463.693 513.083 459.005C513.93 457.854 514.995 456.249 515.998 455.278C516.266 455.017 516.726 454.796 516.967 454.563C517.845 453.703 518.848 452.123 519.704 451.119C520.935 449.672 522.407 448.21 523.509 446.677C524.949 444.681 525.379 443.169 527.336 441.348C529.197 439.612 531.084 437.918 532.929 436.163C533.807 435.328 534.454 434.358 535.355 433.548C536.706 432.336 538.431 431.535 539.638 430.182C538.607 430.792 537.573 431.732 536.516 432.264C535.177 432.941 533.618 433.132 532.257 433.761C530.969 434.355 529.734 435.248 528.39 435.872C524.757 437.56 520.636 439.135 516.899 440.718C512.879 442.421 508.877 443.563 504.874 445.116C503.518 445.64 502.191 446.461 500.88 446.949C500.64 447.04 499.425 447.293 499.374 447.365C499.242 447.553 499.324 451.388 499.338 451.951C499.487 458.544 500.338 465.083 501.047 471.623L501.651 475.988ZM495.561 462.057C495.417 462.044 495.287 462.132 495.146 462.124C493.844 462.032 489.886 459.95 488.44 459.318C487.07 458.716 485.714 458.103 484.353 457.499C480.842 455.946 477.294 454.879 473.695 453.578C469.695 452.131 465.529 450.323 461.439 449.256C461.159 449.181 459.744 448.607 459.62 448.806C462.631 451.477 465.557 454.202 468.178 457.249C472.763 462.576 476.463 468.518 480.796 474.014C484.522 478.736 488.578 483.258 492.397 487.916C494.812 490.866 497.069 493.966 499.612 496.808C499.109 493.675 498.634 490.528 498.27 487.373C498.041 485.387 497.942 483.388 497.719 481.403C496.993 474.956 496.211 468.512 495.561 462.057Z" fill="#B7DFE9"/>
<g opacity="0.2">
<path d="M33.4732 387.877C30.0385 387.572 26.0322 386.48 22.5473 385.908C17.4672 385.075 12.3476 384.391 7.23616 383.774C5.43644 383.556 3.26493 383.561 1.53609 383.208C-0.8097 382.727 -4.12289 381.167 -6.49205 380.323C-7.6827 379.896 -8.90175 379.531 -10.1067 379.146C-9.90554 371.207 -9.15461 363.278 -8.02203 355.43C-4.47749 356.868 -0.798252 358.72 2.9698 359.472C6.01805 360.082 9.41045 360.655 12.4894 361.134C27.2355 363.431 42.6437 359.787 56.1175 353.947C56.5431 353.764 59.7442 351.989 59.8932 352.137C60.0474 352.29 60.4418 355.903 60.511 356.43C60.9412 359.708 61.2159 363.01 61.6234 366.291C62.0851 370.002 62.8948 373.632 63.0175 377.397L63.0156 377.646C61.5162 378.54 59.9817 379.691 58.4325 380.479C56.5241 381.447 52.7152 383.269 50.7657 383.9C48.9738 384.481 46.7664 384.834 44.8823 385.369C42.7183 385.986 39.4446 387.439 37.4624 387.789C36.9573 387.877 36.4366 387.716 35.9622 387.896C35.1527 387.842 34.2738 387.947 33.4732 387.877Z" fill="#B7DFE9"/>
<path d="M36.3508 284.382C38.7802 284.214 40.7719 286.018 40.4593 288.514C40.4128 288.878 40.0264 289.642 40.0423 289.843C40.0519 289.956 40.7887 291.5 40.9161 291.954C42.2036 296.552 42.4308 302.378 43.1702 307.197C43.5989 309.993 44.1919 312.766 44.6328 315.559C45.9656 323.995 47.2723 332.431 48.6121 340.863C48.9317 341.075 53.5482 343.382 53.4033 343.618C53.3679 343.677 52.3186 344.154 52.1505 344.228C40.693 349.366 26.7201 352.708 14.148 350.771C11.2538 350.326 7.88027 349.797 5.03968 349.196C2.11891 348.58 -0.736561 346.971 -3.54985 346C-3.56403 345.802 -3.17367 345.66 -3.02114 345.574C-2.08668 345.047 -0.323238 344.541 0.185319 343.562C0.61774 342.722 1.10511 340.197 1.46109 339.086C3.59169 332.419 5.74708 325.483 8.38239 319.01C11.2686 311.924 14.8955 305.209 18.1382 298.299C18.2766 298.002 19.1744 296.12 19.1615 295.994C19.1535 295.9 17.4473 295.775 17.3007 295.771C13.3794 295.644 9.43251 295.671 5.51144 295.519C4.57958 295.483 3.4453 295.441 2.62495 294.983C2.41986 294.87 2.05263 294.729 2.07913 294.464L3.80065 287.877C7.54584 287.751 11.3643 287.849 15.1193 288.033C16.2989 288.091 17.4996 288.348 18.6792 288.399C19.4225 288.431 21.7925 288.497 22.3995 288.323C22.55 288.281 22.9517 287.795 23.1361 287.65C23.2907 287.526 23.8354 287.287 23.8584 287.254C23.9289 287.159 23.9913 286.548 24.0749 286.345C24.9164 284.298 26.5598 283.96 28.599 283.913C28.895 282.428 28.9478 280.793 29.2769 279.331C29.3347 279.072 29.3274 278.663 29.6316 278.603L36.483 278.362C37.1 280.291 36.6906 282.433 36.3508 284.382ZM33.8074 291.17C33.2354 291.315 29.2484 290.885 29.0778 291.049C29.0303 291.096 29.2037 292.153 29.0676 292.378C29.6055 292.331 33.55 291.941 33.7156 291.745C33.7544 291.7 33.6842 291.3 33.8074 291.17ZM29.6371 301.78C28.2878 302 24.3172 304.415 22.9652 305.211C22.0112 305.774 22.0159 305.392 21.4151 306.565C15.1089 318.894 30.9692 325.174 37.0126 314.547C39.5414 310.101 37.8299 305.029 33.3332 302.8C32.5107 302.392 30.5162 301.637 29.6371 301.78ZM10.3433 339.198C11.8919 333.755 13.5607 328.343 14.8045 322.816C12.5355 328.194 10.9139 333.823 9.0539 339.354C9.04282 339.433 8.98383 339.612 9.07278 339.621C9.19137 339.634 10.0973 339.188 10.3433 339.198ZM40.8326 337.877L38.8824 326.9C32.9153 327.231 26.989 328.592 20.999 328.272L18.5108 337.163C20.9817 336.825 23.3788 336.089 25.8663 335.845C27.4997 335.683 29.1465 335.352 30.8528 335.472C33.187 335.638 37.1383 336.623 39.4089 337.345C39.5761 337.398 40.785 337.936 40.8326 337.877Z" fill="#B7DFE9"/>
</g>
<path opacity="0.2" d="M487.478 142.13C491.018 138.857 495.212 135.13 499.129 132.311C499.756 131.86 500.671 131.466 501.449 131.578C502.662 131.751 505.394 134.389 506.537 135.231C508.068 136.36 509.829 137.222 511.313 138.45C515.652 142.041 519.845 146.113 523.893 150.04C528.062 154.085 532.329 157.982 535.702 162.731C539.195 167.651 541.525 173.349 542.622 179.236C542.317 181.821 542.704 184.557 542.458 187.116C542.287 188.887 541.658 190.968 541.304 192.762C541.159 193.502 541.139 194.272 540.996 195.013C540.342 198.388 539.066 201.289 537.62 204.393C536.121 207.61 534.465 210.102 532.654 213.096C530.904 215.989 529.322 218.736 527.432 221.563C527.202 221.908 526.057 224.12 525.668 223.96C525.248 223.477 522.604 221.481 522.509 221.093C522.43 220.767 524.651 217.777 524.977 217.27C526.21 215.349 527.266 213.303 528.447 211.35C531.683 205.999 535.385 200.323 536.588 194.093C536.779 193.11 536.861 192.064 537.051 191.061C537.323 189.636 537.861 188.015 537.996 186.608C538.147 185.06 537.979 183.142 538.008 181.539C538.019 180.903 538.165 180.192 538.145 179.559C538.1 178.237 537.268 176.456 536.845 175.155C536.307 173.503 536.077 172.347 535.249 170.742C531.37 163.217 526.512 158.797 520.515 153.014C518.246 150.827 515.847 148.326 513.506 146.283C511.863 144.849 510.191 143.352 508.522 141.951C507.055 140.718 505.279 139.869 503.749 138.724C502.811 138.022 501.956 137.21 501.027 136.5L500.842 136.527C499.287 137.899 497.561 139.068 495.971 140.393C495.492 140.791 492.191 143.629 492.154 143.886C492.145 143.943 492.62 144.901 492.676 144.909C492.737 144.918 492.867 143.923 492.936 143.741C494.131 140.611 498.783 139.158 501.436 141.438C506.806 146.055 500.869 153.006 495.862 150.369C495.657 150.262 495.039 149.91 494.907 149.772L494.252 149.09L494.914 152.791C495.267 152.656 495.639 152.539 496.006 152.453C499.465 151.634 503.017 151.127 506.549 150.711C507.55 150.593 510.13 150.209 510.978 150.442C512.071 150.742 514.51 153.296 515.421 154.2C520.606 159.353 525.815 164.778 528.599 171.62C530.923 177.329 529.605 184.789 528.196 190.602C527.595 193.086 526.829 195.123 526.025 197.518C525.607 198.76 524.999 201.749 524.175 202.599C524.098 202.679 523.74 202.974 523.649 202.949C523.53 202.912 521.835 201.609 521.661 201.442C521.51 201.296 520.463 200.034 520.444 199.939C520.433 199.877 520.785 199.15 520.836 198.978C522.05 194.96 523.445 191.194 524.314 187.066C525.1 183.331 525.875 177.661 524.597 174.027C522.41 167.816 516.927 162.128 512.31 157.547C511.918 157.156 509.668 154.932 509.368 154.864C504.726 155.497 500.005 155.785 495.492 157.129L495.693 163.386C496.922 163.238 498.155 163.412 499.38 163.418C501.283 163.428 504.127 163.126 505.919 163.722C506.878 164.043 509.335 166.329 510.139 167.136C512.7 169.697 515.142 172.957 517.76 175.367C518.024 175.609 519.693 176.808 519.686 176.992C519.687 177.043 519.096 177.599 519.051 177.785C518.342 178.312 517.632 179.347 516.934 179.82C516.859 179.871 516.808 179.953 516.702 179.884C516.032 179.364 515.285 178.923 514.658 178.345C511.784 175.697 509.235 172.308 506.354 169.593C505.978 169.24 504.67 168.083 504.267 167.924C503.48 167.615 500.811 167.856 499.843 167.854C498.01 167.849 496.192 167.697 494.366 167.977C493.949 169.597 493.305 171.139 492.558 172.632C493.788 172.843 495.052 172.883 496.281 173.103C497.02 173.236 499.362 173.71 499.856 174.12C501.059 175.121 502.735 177.348 503.819 178.626C506.581 181.875 508.876 184.776 511.09 188.408C511.41 188.933 511.831 189.399 512.143 189.928C511.68 190.139 508.194 191.612 507.987 191.508C507.595 191.316 507.016 189.928 506.756 189.517C504.068 185.276 500.387 181.633 497.296 177.682C495.374 177.007 493.342 176.977 491.373 176.482C491.188 176.436 490.44 176.117 490.389 176.128C490.195 176.175 488.569 178.98 488.206 179.297C489.419 179.492 490.608 179.73 491.76 180.189C493.169 180.753 495.17 181.59 496.119 182.755C497.259 184.152 498.89 186.532 499.852 188.086C500.721 189.49 501.179 191.024 501.812 192.528C501.237 192.484 497.94 193.941 497.752 193.841C497.634 193.779 496.946 191.765 496.789 191.433C495.721 189.182 493.815 187.276 492.538 185.124C490.373 183.766 488.068 183.362 485.575 183.138L469.136 203.843L471.41 201.842C475.888 197.468 480.447 193.179 485.037 188.933C485.953 188.083 487.137 186.109 488.621 187.264C489.75 188.146 490.91 189.92 491.585 191.189C495.395 198.34 489.865 204.266 485.361 209.406C483.303 211.757 481.103 213.986 479.117 216.399C479.47 216.245 479.802 216.005 480.12 215.783C481.745 214.646 483.355 213.45 484.937 212.254C487.63 210.218 490.373 207.719 493.132 205.856C493.889 205.347 494.748 205.053 495.509 204.608C496.674 203.931 498.409 202.079 499.732 203.257C501.224 204.59 499.915 208.936 499.354 210.569C498.042 214.388 493.622 219.725 490.543 222.329C489.707 223.037 488.649 223.587 487.852 224.369C488.419 224.166 488.949 223.824 489.46 223.506C492.052 221.887 494.77 220.133 497.306 218.425C498.962 217.309 502.766 213.983 504.406 213.731C504.599 213.702 505.151 213.691 505.285 213.827C505.384 213.928 504.951 216.331 504.87 216.628C504.524 217.905 503.093 221.757 502.428 222.8C501.785 223.805 499.938 225.638 499.034 226.557C497.71 227.906 496.35 229.257 494.696 230.178C499.687 229.735 504.753 228.909 509.754 229.684C513.804 230.31 517.368 231.447 518.96 235.677C520.062 238.6 518.858 242.032 516.813 244.276L514.558 246.441L510.356 249.69C508.056 247.432 505.558 245.389 503.166 243.234C500.556 240.881 497.304 238.203 495.021 235.601C494.478 234.985 493.9 233.968 493.318 233.44C493.116 233.258 492.539 233.305 492.125 232.873C491.771 232.505 491.727 231.825 491.674 231.771C490.584 230.607 489.274 229.484 488.162 228.27C488.01 228.106 487.976 227.872 487.854 227.752C487.738 227.64 487.453 227.588 487.26 227.42C485.706 226.068 484.162 224.216 482.607 222.76C481.107 221.354 479.336 220.034 477.896 218.613C475.309 216.061 473.272 212.754 470.317 210.45C470.1 210.281 469.843 210.044 469.564 210.028L469.338 209.793C467.339 206.839 464.813 204.296 462.381 201.695C461.649 200.913 461.416 200.121 461.062 199.09C459.413 194.28 459.506 190.328 459.666 185.372C459.971 175.819 464.742 167.134 470.003 159.356L485.756 144.238L486.35 143.213C486.731 142.858 487.095 142.484 487.478 142.13ZM492.674 162.219L492.628 162.263L492.673 162.265L492.674 162.219ZM486.498 192.007L486.452 192.051L486.495 192.052L486.498 192.007ZM498.073 233.036L498.025 233.082L498.07 233.082L498.073 233.036Z" fill="#B7DFE9"/>
<path opacity="0.2" d="M56.7197 531.978C47.2853 531.351 42.3369 526.538 36.5803 519.815C27.8028 509.57 18.7508 498.921 10.3342 488.391C10.1073 488.105 9.80046 487.809 9.69025 487.46H43.0132C43.0586 487.46 43.2488 487.381 43.212 487.259C43.1883 487.185 42.3542 486.25 42.2094 486.08C32.1051 474.228 21.1645 463.137 11.5076 450.88C10.3385 449.396 6.15504 444.454 6.01459 442.959C5.97569 442.553 5.98434 442.588 6.4338 442.538C13.4999 441.749 21.9684 441.976 29.1079 442.289C30.5644 442.355 32.9694 442.337 34.3092 442.638C36.4312 443.118 40.902 445.189 43.0262 446.172C51.633 450.156 55.6955 454.499 60.9658 462.215C64.7884 467.815 68.0924 473.694 70.4672 480.081C70.6163 480.099 70.5299 479.915 70.5126 479.835C70.4067 479.386 70.2101 478.939 70.1042 478.459C69.5078 475.761 69.6223 471.7 69.9875 468.933C70.2447 466.967 71.9842 464.617 73.2137 463.026C73.6329 462.483 76.1914 459.514 76.6344 459.416C77.4058 459.246 79.3939 461.463 79.9557 462.036C83.6227 465.786 86.8878 470.03 90.4835 473.879C100.447 484.548 111.386 494.313 120.79 505.504C121.22 506.015 121.901 506.908 122 507.571V507.896C117.415 508.218 112.81 508.303 108.207 508.223C105.808 508.181 101.796 508.284 99.5657 507.859C97.8132 507.525 94.0187 505.93 92.2576 505.175C87.9834 503.346 84.1435 500.901 81.0793 497.354C85.5178 507.922 82.0906 520.345 72.9847 527.098C69.121 529.962 64.6307 531.525 59.8552 531.978C58.8266 531.928 57.7396 532.046 56.7197 531.978ZM77.7645 468.506C73.5206 469.084 74.0608 476.027 78.858 475.449C83.1862 474.93 82.5509 467.857 77.7645 468.506ZM70.5883 480.162V480.242L70.6272 480.203L70.5883 480.162ZM70.7071 480.487C70.7654 480.399 70.6682 480.264 70.6293 480.325C70.571 480.412 70.666 480.548 70.7071 480.487ZM70.7482 480.648V480.731L70.7892 480.689L70.7482 480.648ZM70.867 481.053C70.9254 480.966 70.8303 480.831 70.7892 480.892C70.7309 480.979 70.8281 481.114 70.867 481.053Z" fill="#B7DFE9"/>
<path opacity="0.2" d="M492.052 92.591L484.707 86.2088C479.43 78.7348 474.252 71.5166 467.898 64.9037C466.598 63.5511 465.108 62.3726 463.857 60.9692C459.113 61.6424 454.688 63.9023 449.846 64.0872C442.842 64.3537 440.032 61.6402 434.487 58.4634C424.661 52.8346 415.554 48.2122 410.443 37.4489C410.341 37.2321 409.961 36.0702 409.906 36.0173C409.841 35.9588 409.147 35.6908 408.965 35.5828C405.759 33.7004 402.404 31.8413 399.351 29.7278C398.679 29.2628 396.875 28.142 396.653 27.4561C396.623 27.3624 396.523 27.0076 396.559 26.9638C396.738 26.7533 401.399 26.3069 402.033 26.1986C405.211 26.8374 407.927 28.6065 410.917 29.751C411.836 29.2325 412.961 28.8668 414.019 28.8067C417.569 28.6004 422.508 29.3955 425.534 31.3191C426.021 31.6296 426.51 32.0719 426.975 32.4213C423.111 23.32 421.337 13.8078 419.657 4.11405C418.466 -2.74283 418.256 -5.70544 420.544 -12.5184C421.19 -14.4425 421.447 -14.8563 422.802 -16.3041C425.567 -19.2566 428.713 -22.2893 431.635 -25.1083C434.351 -27.7268 437.704 -31.1487 440.697 -33.3291C448.889 -39.3023 457.324 -44.3038 467.012 -47.4801C467.394 -47.5207 470.727 -47.1064 470.895 -46.9605C471.637 -46.3222 470.643 -43.7872 470.335 -43.0154C469.134 -39.999 467.25 -36.9704 465.777 -34.0491C464.251 -31.0289 462.845 -27.9478 461.223 -24.9769C457.494 -18.149 453.039 -11.7708 449.382 -4.90971C450.133 -2.70983 450.328 -0.532574 450.167 1.796C449.725 8.11947 448.48 15.0878 447.157 21.2891C446.66 23.6223 446.05 25.937 445.535 28.2634C451.323 21.7275 457.502 15.5492 463.391 9.10688C466.955 5.20404 470.334 0.973244 474.073 -2.74778C476.858 -5.52008 479.951 -8.0897 482.848 -10.756C484.219 -12.0153 485.373 -13.5868 487.086 -14.3208C490.116 -15.6187 494.44 -16.1726 497.728 -16.6352C511.803 -18.6063 527.117 -19.7504 541.32 -18.4704C542.256 -18.3855 543.446 -18.2844 543.894 -17.3028L543.726 -14.2639L543.395 -11.5877C540.06 -6.10253 533.928 -4.08869 528.151 -2.25265C522.768 -0.543401 517.301 0.984156 511.842 2.42282L516.216 3.04483C517.767 3.64485 521.174 3.30011 521.953 5.05579C522.861 7.10601 521.066 13.2031 520.369 15.4609C520.026 16.5708 519.64 18.2064 518.871 19.0573C517.275 20.8222 509.431 23.5528 506.905 24.3224C500.402 26.3058 493.545 26.8648 486.768 27.0825L508.129 33.5362C508.259 33.6708 508.323 34.2846 508.345 34.5001C508.642 37.4232 508.683 40.6195 508.37 43.5437C508.314 44.0812 508.251 45.1774 508.105 45.6312C507.9 46.2599 505.464 47.381 504.798 47.6827C497.122 51.1495 488.347 52.1671 480.259 54.3737C482.118 54.9943 483.941 55.753 485.73 56.5558C490.05 58.4991 494.405 61.2741 498.772 62.9049C500.874 63.6894 502.328 63.5334 503.699 65.5488C504.829 67.2051 506.928 73.0066 507.168 74.9985C507.196 75.2148 507.066 75.539 507.142 75.6999C507.252 75.9307 510.864 78.0674 511.421 78.472C512.243 79.0697 513.568 80.028 513.61 81.1438C513.692 83.3993 511.703 84.3407 509.76 84.4824C506.144 84.7486 502.633 84.6634 499.125 83.7007C495.682 82.757 492.204 80.4701 489.261 78.4953C490.533 80.3623 491.938 82.1645 493.099 84.1079C493.754 85.2029 495.242 87.7288 495.217 88.946C495.178 90.8045 493.947 92.0044 492.303 92.6219L492.052 92.591ZM419.1 32.1609C416.181 31.8351 415.562 35.9792 418.284 36.7592C421.899 37.7922 422.572 32.5485 419.1 32.1609Z" fill="#B7DFE9"/>
<path opacity="0.2" d="M75.037 8.08126L71.4266 7.91507L67.2166 8.19212C61.4285 9.94534 55.3508 10.9898 49.7152 13.1992C46.3886 14.5035 43.7197 16.3957 40.721 18.2835C40.3137 18.3484 38.7945 17.6388 38.3566 17.4266C37.8174 17.1632 34.958 16.1596 34.4782 16.0524C34.2114 15.9921 33.7855 15.6549 33.4325 15.552C29.6486 14.4454 28.5286 16.872 26.2274 19.1512C24.7782 20.5869 23.5982 21.3224 22.5174 23.201C19.6772 28.1411 21.51 31.8621 22.5162 36.8538C22.9714 39.1113 22.6551 41.0714 21.9167 43.2492C21.2574 45.1905 20.3879 45.8428 19.1478 47.3453C13.2755 54.4614 7.42584 59.4349 5.53147 69.1285C5.18522 70.8968 5.08604 72.6811 4.90151 74.4692L4.71866 78.4413C4.81739 79.022 4.86778 79.6098 4.96341 80.1903C5.53008 83.5929 6.0701 87.036 7.66963 90.1066C9.24635 93.1343 12.6746 99.2768 15.6228 100.909C17.0395 101.693 18.718 101.129 19.1402 99.5279C20.0262 96.1613 18.6128 92.647 18.6949 89.183C18.7675 86.0918 19.4189 84.7263 21.2404 82.3351C21.5521 81.9235 23.3131 79.7356 23.6596 79.6772C26.8194 80.3136 29.6424 80.5938 32.8172 79.8587C35.9545 79.1311 38.8619 76.4352 41.2676 74.4086C42.7854 73.131 44.4062 71.8024 45.8652 70.4229C46.8044 69.5338 47.6658 68.5527 48.5978 67.6539L46.651 71.8902C46.0728 73.5502 46.1642 75.4673 45.8749 77.1096C45.7678 77.7196 45.4222 78.3294 45.3597 79.0483C45.2181 80.6789 46.1484 82.2039 47.9102 81.3123C49.5022 80.5074 50.9513 78.9401 52.3967 77.8884C53.5907 77.0187 54.9313 76.3262 56.1254 75.4519C57.4751 76.7499 58.5524 78.5141 60.2993 79.3255C61.0923 79.695 62.7874 80.1851 63.6484 80.2216C63.9854 80.2356 64.5521 80.0386 64.8099 80.1899C68.0675 84.1174 71.0482 88.2072 73.2465 92.8372C75.0764 96.6912 76.254 102.097 76.3001 106.38C76.3113 107.514 75.6427 109.219 75.1232 110.244C73.827 112.797 69.1316 115.71 66.2526 115.267C59.2365 114.189 51.2621 106.575 46.7904 101.33C43.7163 97.7242 41.4966 93.4557 38.6091 89.6985C37.1686 88.5573 35.21 89.9231 35.913 91.6746C38.4542 94.914 40.4343 98.7688 42.9626 101.986C47.0564 107.194 55.1082 114.979 61.3282 117.268C62.8178 117.815 64.3837 118.183 65.8945 118.672L67.7708 118.759C69.2133 118.579 70.4406 118.095 71.7163 117.432C75.7308 115.347 77.9427 113.258 79.3002 108.833C79.9726 106.642 79.3834 103.325 79.057 101.028C78.4961 97.0965 77.816 94.5777 76.0797 91.013C73.6939 86.1126 70.5252 81.7679 67.0224 77.6169C67.1518 76.8237 67.5739 76.0997 67.6713 75.2957C67.9684 72.8792 66.285 70.7573 64.7066 69.1436C65.8007 68.2553 66.7821 67.2241 67.8363 66.2953C68.4287 65.7743 69.2147 65.321 69.7871 64.796C70.4065 64.2282 70.8785 63.4616 71.4289 62.8782C72.2316 62.0277 74.7434 59.7133 75.1063 58.7945C75.6394 57.4421 72.9106 56.3268 71.9772 56.0128C68.547 54.8605 65.569 55.456 62.1057 56.0664C61.0985 56.2446 59.7358 56.7085 58.8125 56.7806C58.7207 56.7887 58.6639 56.9131 58.6883 56.7206C62.8231 52.1561 66.3208 46.7956 68.0667 40.8324C68.3588 39.8376 68.5483 38.1426 68.8758 37.3198C69.0055 36.9927 71.184 34.6861 71.5844 34.2988C75.5434 30.4572 83.1211 27.2096 88.378 25.5559C91.7239 24.5034 97.1848 24.4759 94.9598 19.3476C94.6434 18.6159 92.4965 16.1319 91.8467 15.4763C88.5284 12.1283 81.3897 8.80117 76.7291 8.2335L75.037 8.08126ZM29.4532 29.5916C29.0617 31.6026 25.0112 31.3728 26.1075 28.3503C26.7391 26.6091 29.9353 27.1249 29.4532 29.5916Z" fill="#B7DFE9"/>
<path opacity="0.2" d="M233.576 58.8145L230.456 59.0323C229.742 54.7164 229.209 50.3729 228.166 46.1225C227.893 45.0064 227.572 43.6013 227.203 42.5349C226.99 41.9208 226.664 41.3372 226.37 40.7588C225.166 40.496 224.037 39.9712 222.862 39.6361C220.868 39.0671 218.791 38.8374 216.802 38.3319C216.526 38.2621 215.189 37.7625 215.102 37.7795C214.973 37.8064 214.183 40.1189 214.256 40.2259C214.346 40.354 216.738 41.2679 217.144 41.4737C218.547 42.182 221.437 44.0359 222.424 45.1831C223.8 46.7774 225.171 51.0936 225.923 53.221C226.525 54.9187 227.678 57.8005 227.912 59.4866C227.948 59.7466 228.022 60.2542 227.742 60.3887C227.573 60.468 225.466 60.7186 225.206 60.7073C225.076 60.7025 225.068 60.7264 224.971 60.6186C224.829 60.4556 224.458 58.769 224.333 58.3754C223.357 55.2928 222.072 51.2293 220.737 48.3345C220.046 46.8383 218.084 45.633 216.671 44.791C215.418 44.0427 214.123 43.5827 212.803 42.9731L211.057 45.2058C211.852 45.896 212.62 46.6282 213.336 47.3982C214.334 48.4696 217.94 52.4392 218.211 53.5822C218.787 56.0027 217.879 58.9028 217.276 61.2473C216.877 61.0105 214.249 61.0452 214.13 60.9434C214.068 60.8919 214.088 60.3684 214.113 60.2345C214.165 59.9467 214.394 59.7453 214.476 59.4896C215.003 57.8841 215.344 56.0195 215.145 54.34C214.483 53.5533 209.498 47.5857 209.018 47.5743C208.827 47.5711 206.715 49.9887 206.284 50.204C207.741 52.0373 209.713 55.9362 207.819 58.0207C206.434 59.5424 199.44 62.6005 197.23 63.5311C196.739 63.7372 195.028 64.4731 194.596 64.3571C194.54 64.3421 194.502 64.3251 194.487 64.2666C194.455 63.8766 193.7 61.5492 193.873 61.3789C193.997 61.2567 194.623 61.2215 194.824 61.1544C196.648 60.5475 199.164 59.2526 200.956 58.3923C202.005 57.8891 203.286 57.3294 204.266 56.747C204.433 56.6466 205.319 56.0713 205.369 55.9752C205.472 55.7828 205.319 54.9101 205.254 54.6657C205.033 53.8415 204.307 53.1169 203.989 52.3214C203.916 52.3084 203.856 52.3329 203.795 52.3734C203.504 52.5606 202.917 53.3024 202.521 53.6166C200.295 55.3717 195.343 57.1334 192.526 57.5919C185.582 58.7243 177.191 59.4885 170.474 57.1754C169.596 56.8722 168.756 56.4797 167.973 55.9848C167.935 56.8879 166.682 62.1301 167.005 62.6007C167.041 62.655 167.511 62.9441 167.608 62.9969C168.775 63.6202 171.63 63.7939 172.99 63.7749C173.398 63.7678 175.942 63.4838 176.032 63.7431C175.994 64.1073 175.917 66.6175 175.7 66.7076C175.59 66.7537 173.87 66.8631 173.614 66.8725C170.679 66.9755 166.741 66.6779 164.509 64.6308C163.342 63.5608 163.864 61.4257 164.068 59.9844C164.31 58.2764 164.686 56.484 165.015 54.7839C165.111 54.2927 165.534 52.995 165.53 52.6374C165.526 52.2903 164.679 51.5049 164.578 51.1051C161.328 52.1106 158.28 53.5969 155.264 55.1309C154.682 59.0563 154.928 63.1769 155.354 67.1176L152.349 67.4573C152.273 67.466 152.238 67.2997 152.218 67.2399C151.733 65.6017 151.77 61.5235 151.778 59.67C151.786 58.2597 151.819 53.962 152.766 52.9863C153.299 52.4385 156.091 51.2294 156.962 50.8243C158.999 49.8759 161.05 48.9651 163.205 48.2978C163.074 48.1052 162.97 46.9611 162.914 46.9159C162.636 46.6974 158.291 47.9083 157.607 48.0548C153.805 48.864 150.299 49.3685 146.939 51.5619C145.606 52.4306 145.504 52.9757 145.205 54.4456C144.653 57.169 144.487 60.0687 144.046 62.815C143.846 64.059 143.469 65.2665 143.35 66.5244C142.757 66.4408 142.066 66.4498 141.486 66.3292C141.29 66.2874 140.278 65.9658 140.253 65.8409C140.173 65.4476 140.825 63.0461 140.926 62.4266C141.436 59.2771 141.552 54.706 142.628 51.8152C143.897 48.4008 151.381 46.0444 154.705 45.3512C155.387 45.2104 156.191 45.1816 156.856 45.039C158.671 44.6477 160.435 44.037 162.289 43.8185L161.666 40.7209C160.956 40.8171 160.265 41.0318 159.562 41.1609C154.37 42.1147 148.613 43.1201 143.568 44.6087C142.301 44.9823 140.923 45.2569 140.199 46.3901C137.934 49.9258 137.866 55.4134 137.308 59.4636C137.161 60.5333 136.898 61.5878 136.738 62.6536C136.671 63.099 136.803 64.7116 136.127 64.6958C135.88 64.69 134.146 64.0262 133.843 63.8726C133.656 63.7785 133.458 63.7566 133.475 63.494C134.678 57.5804 134.321 51.5025 136.907 45.9272C138.51 42.4715 140.779 42.1104 144.266 41.2163C147.614 40.3575 151.333 39.4974 154.718 38.8116C155.496 38.6545 160.922 37.878 161.106 37.6126C161.187 37.4917 160.73 35.1607 160.717 34.7296C160.696 34.0529 160.889 33.3397 160.859 32.6571C159.255 35.2016 156.15 35.8646 153.304 36.0072C150.547 36.1433 146.751 34.8421 144.265 33.6836C139.324 31.3808 135.689 27.0387 135.964 21.4125C136.162 17.3409 138.036 7.99367 140.01 4.45697C141.344 2.06889 146.891 -1.45317 149.495 -2.3468C153.266 -3.64174 157.864 -3.54986 161.826 -3.43927C164.491 -3.36648 167.549 -2.19451 169.731 -0.700259C169.844 -0.624372 170.514 -0.0672789 170.463 0.0235721C170.423 0.0972573 169.154 0.66625 168.932 0.79231C163.898 3.65905 158.76 6.22008 153.855 9.3257C151.917 10.5517 150.217 12.1018 148.376 13.4517C145.873 15.2877 143.274 16.9961 140.808 18.8793C142.469 18.4771 144.099 17.9347 145.757 17.5204C153.019 15.7049 160.135 13.5159 167.121 10.8311C169.598 9.87911 172.767 8.20196 175.34 7.76568C175.703 7.70334 176.156 7.66988 176.453 7.90761C176.172 9.92668 175.237 11.7982 174.238 13.5722C173.393 15.0754 172.464 16.5597 171.243 17.7986C172.653 17.4212 174.63 16.462 176.072 17.0223C177.022 17.3919 179.847 19.6272 180.487 20.4377C181.171 21.3088 181.128 21.9164 181.038 22.9762C180.848 25.2278 179.875 28.3251 177.621 29.328L174.435 30.3122C178.658 30.0724 182.896 29.9852 187.118 29.7578C190.097 29.5967 193.121 29.4729 196.089 29.2828C197.877 29.1692 199.673 28.8475 201.464 28.739C199.127 27.9785 197.566 27.2933 197.437 24.5759C197.274 21.1586 200.448 18.7699 203.69 20.4121C203.829 20.4814 204.807 21.2661 204.852 21.2115C204.947 21.0979 203.108 19.2102 202.933 18.996C198.605 13.6933 198.06 9.09415 198.01 2.40549C198.009 2.09184 198.441 0.57153 198.727 0.603047C198.947 0.627781 201.246 3.53073 201.699 3.83232C205.259 7.11212 208.615 11.2995 211.052 15.4774C212.107 17.287 213.023 19.3942 214.037 21.2688C214.99 23.0332 215.996 24.7792 217.002 26.5109C216.214 23.3966 214.993 20.409 213.837 17.4177C211.726 11.9584 209.571 6.69734 206.928 1.46128C206.266 0.155037 205.583 -1.22856 204.851 -2.49312C204.694 -2.7609 203.801 -3.85835 203.973 -4.10118C204.02 -4.16672 205.35 -4.07068 205.582 -4.08276C207.687 -4.18237 208.614 -4.34393 210.719 -3.83552C213.944 -3.05482 217.173 -2.08658 219.842 -0.0995855C221.805 1.36097 223.072 3.71564 224.795 5.45681C225.193 7.74674 225.737 10.013 226.128 12.3036C226.36 13.6531 226.823 15.7618 226.856 17.0558C226.884 18.1642 225.494 24.1807 224.944 25.1364C224.02 26.7424 221.5 28.2434 219.977 29.2417C219.485 29.565 219.058 29.9981 218.551 30.3035C218.129 30.5604 216.747 31.0748 216.547 31.2764C216.424 31.4002 215.77 34.472 215.821 34.6365C215.979 35.1558 221.02 35.983 221.804 36.1656C223.412 36.5387 224.832 37.0732 226.388 37.5497C227.466 37.8799 227.965 37.6108 228.754 38.6456C230.06 40.3576 230.726 43.3529 231.235 45.4388C232.215 49.4623 232.834 53.562 233.372 57.6656L233.47 57.8832L233.576 58.8145ZM169.698 19.255C167.853 20.2969 165.721 20.4456 163.715 20.9525C159.328 22.0601 156.69 22.8476 152.015 22.5818C149.693 22.4489 147.394 22.3365 145.069 22.2199C143.144 22.1238 141.18 21.7554 139.264 21.55C142.747 23.3404 146.332 24.9988 149.962 26.4836C150.413 26.6685 150.724 26.9028 151.268 27.0718C154.055 27.9392 156.754 29.2616 159.526 30.2832C159.909 30.4243 160.347 30.4528 160.779 30.6309C160.965 30.7073 161.166 30.9524 161.298 30.9747C161.554 31.0184 161.773 30.8518 162.019 30.8346C165.128 30.618 168.376 30.6532 171.468 30.3799C171.521 30.3756 171.58 30.385 171.567 30.3333C171.546 30.2559 170.454 29.6135 170.229 29.4084C169.612 28.8417 168.452 26.8543 168.277 26.0567C167.804 23.8746 168.38 21.0669 169.698 19.255ZM215.167 27.1918C214.244 26.7395 213.183 26.7867 212.242 26.5226C211.767 26.3901 211.165 26.061 210.713 25.8337C208.815 24.88 207.16 23.5159 205.633 22.068C206.404 24.337 205.286 27.2486 203.29 28.568L215.167 27.1918Z" fill="#B7DFE9"/>
<path opacity="0.2" d="M336.127 30.9353C336.182 31.0435 336.292 30.9001 336.364 30.8553C338.193 29.6968 340.166 28.3109 341.922 27.0331C343.157 26.1358 345.457 23.9889 346.721 23.5395C346.85 23.4924 347.341 23.3526 347.439 23.4029L351.779 29.1547C351.957 29.5642 350.315 31.2011 349.989 31.4993C346.82 34.3855 341.879 37.6064 338.238 40.0196C337.809 40.3039 337.271 40.515 336.869 40.875L337.08 40.9168C340.454 39.8174 343.797 38.63 347.164 37.5113C348.423 37.0918 350 36.8256 351.166 36.2084C351.438 36.0653 352.976 34.9701 353.139 35.0429C353.375 35.1486 355.771 38.7989 356.091 39.3123C356.274 39.6068 357.499 41.7308 357.505 41.8765C357.508 41.9506 356.54 42.7152 356.383 42.8319C353.563 44.9265 349.972 45.3562 346.808 46.6994C349.32 47.005 351.874 47.1517 354.378 47.5087C355.293 47.6395 356.236 47.7355 357.097 48.0795L355.467 55.8348L337.948 54.4631L336.978 57.0602L336.999 57.1943C339.609 59.0155 342.259 60.978 345.092 62.4394C346.822 63.3312 349.869 64.1034 351.043 65.6018C351.232 65.8419 351.671 66.4287 351.571 66.7416L347.933 72.283C347.478 72.4915 344.459 71.3687 343.838 71.1322C339.553 69.5 335.705 66.9052 332.023 64.1956L327.302 67.5179L334.413 80.2951C334.607 80.9113 336.448 85.1721 336.365 85.434C336.34 85.5055 335.458 86.0709 335.282 86.1311L328.184 87.9049C327.985 87.8824 327.067 85.0165 326.884 84.5932C325.618 81.6398 323.385 78.2324 321.772 75.3785C321.131 74.2447 320.572 73.059 319.905 71.9385C320.06 74.3958 320.365 76.8643 320.75 79.2984C321.114 81.6089 321.911 84.2973 322.108 86.529C322.149 87.0061 322.12 88.64 321.669 88.8544C320.404 88.8754 318.98 89.0514 317.728 88.9846C316.524 88.9202 315.227 88.556 313.998 88.5501L313.773 88.4065C312.827 84.0613 312.061 79.6812 311.544 75.2648C311.478 74.7005 311.246 70.8243 311.027 70.705L307.386 70.1348C304.883 75.4441 302.91 81.0091 300.093 86.1621L292.834 81.9745L292.733 81.7301L299.42 66.919L298.494 66.2689L289.335 72.2436C288.682 72.5495 288.116 73.0431 287.384 73.168L282.814 66.5264C283.551 65.3292 285.022 64.8923 286.071 64.0355L282.029 65.4265C280.464 62.9903 278.983 60.4987 277.811 57.8504L291.283 53.099L290.625 48.6164L277.287 47.3717C277.62 44.6244 277.748 41.8467 277.515 39.082C278.626 38.7552 279.779 39.014 280.912 38.9994L291.994 40.1099L292.443 38.7562L276.158 28.6077C277.435 26.1654 279.161 23.9909 280.526 21.5971C280.574 21.5402 280.639 21.4233 280.712 21.4188C280.861 21.4077 283.031 22.7048 283.337 22.893C286.84 25.0524 290.379 27.1759 293.876 29.3522C294.426 29.6927 296.24 31.0969 296.653 31.2094C296.907 31.2784 297.382 30.6248 297.59 30.4273C295.636 26.9105 293.759 23.3563 291.892 19.7924C290.89 17.8796 290.005 15.9293 288.931 14.0459C288.385 13.0884 287.531 12.2542 287.501 11.048C288.477 10.954 294.73 7.93239 295.058 8.16855C295.131 8.22075 296.009 9.4024 296.133 9.58524C297.872 12.1518 299.489 15.659 300.981 18.457C302.353 21.0303 303.574 23.6903 305.129 26.1684C305.263 26.1262 305.353 26.1647 305.321 25.995C304.679 21.5708 304.589 16.8219 303.334 12.506C303.131 11.8053 302.758 11.1752 302.641 10.448C302.517 9.677 302.632 8.71805 303.054 8.04431L309.897 7.09113C309.941 7.09797 310.302 7.49238 310.364 7.57359C311.458 8.99251 312.046 12.2357 312.406 14.0397C313.099 17.5113 313.359 21.0393 313.787 24.548C313.822 24.6565 313.897 24.6614 313.991 24.6839C314.42 24.7878 315.605 24.5341 316.129 24.653L323.499 5.29692C323.54 5.21174 323.597 5.23781 323.661 5.22894C323.817 5.20881 325.526 5.65966 325.847 5.73719C326.588 5.91572 331.093 7.19405 331.332 7.60859C331.357 7.65053 331.203 8.43838 331.171 8.55627C330.413 11.3012 329.284 14.0598 328.307 16.7381C327.159 19.8802 325.868 22.9725 324.759 26.1309L324.811 26.3675L327.567 27.8299L327.802 27.7883C330.637 23.8072 333.528 19.8428 335.918 15.574C336.705 14.1706 337.175 12.4469 338.542 11.4646L344.925 16.5475C342.807 21.7592 339.334 26.3459 336.127 30.9353Z" fill="#B7DFE9"/>
<path opacity="0.2" d="M16.668 166.03C19.5388 164.295 21.4202 161.461 23.9676 159.343C27.6805 156.255 32.1514 154.529 37.0184 154.31C40.9228 154.135 46.8616 155.092 50.5344 156.449C53.1258 157.409 56.3565 158.703 57.7517 161.219C58.4656 162.51 58.0732 164.128 56.7584 164.842C55.8263 165.348 52.3985 165.567 51.2042 165.615C49.9258 165.668 48.5382 165.519 47.2788 165.616C46.4731 165.679 45.3841 165.896 44.5668 166.045C42.9515 166.336 41.4453 166.509 40.1859 167.615C38.5342 169.064 37.0012 171.099 36.0787 173.09C35.9888 173.286 35.4931 174.542 35.5658 174.624C35.6289 174.692 37.2175 174.919 37.4376 174.944C40.2529 175.267 42.8922 174.915 45.6922 175.511C51.9679 176.845 57.8665 178.301 62.7087 182.712C64.77 184.591 66.8006 189.064 66.9384 191.834C67.0035 193.166 67.1872 195.661 66.3145 196.682C64.1288 199.238 59.6962 195.762 57.4512 194.79C54.7794 193.63 51.6865 193.261 48.8253 192.776C51.7937 195.913 54.9134 199.482 56.2321 203.677C56.9268 205.889 57.1201 209.82 56.9593 212.146C56.8196 214.2 54.4062 218.7 53.3784 220.67C52.2703 222.794 51.1449 226.021 48.1229 225.113C45.6425 224.368 46.3525 221.089 46.2396 219.082C46.1114 216.775 45.7917 214.325 45.2367 212.085C44.7027 209.923 43.9353 207.646 42.1496 206.194C42.1113 207.994 42.3391 209.886 42.2204 211.687C42.0367 214.491 40.6338 219.069 38.7543 221.199C37.1314 223.04 33.7418 224.73 31.5294 225.916C27.3456 228.16 22.8996 229.512 18.3866 230.949C15.8125 231.409 14.2201 228.668 15.8833 226.622C16.8134 225.478 18.0154 224.686 18.9417 223.413C20.0613 221.875 21.4374 219.676 22.3867 218.018C23.6097 215.882 24.3484 213.836 24.4786 211.365C24.5494 210.018 24.4996 208.647 24.5226 207.298C22.9226 209.114 21.5886 211.154 20.0173 212.995C15.8335 217.9 8.32337 220.057 2.16828 221.161C-0.901615 221.711 -6.90743 221.477 -9.77827 220.203C-10.9974 219.661 -12.096 218.913 -13.1927 218.178C-14.5496 217.272 -16.0195 216.629 -15.6635 214.638C-15.3094 212.652 -13.2826 212.557 -11.7783 211.885C-10.3352 211.242 -8.71032 210.343 -7.26533 209.618C-4.54759 208.257 -2.7581 206.645 -0.350414 204.916C0.748163 204.126 1.79315 203.618 2.76159 202.634C4.21997 201.151 5.46784 199.404 6.40947 197.555C4.57596 198.09 2.78646 198.833 0.882137 199.109C-1.23081 199.415 -5.47775 199.693 -7.4414 199.036C-13.3171 197.072 -16.586 193.57 -18.3315 187.674C-18.7717 186.19 -19.0358 184.657 -19.432 183.161C-19.9908 181.041 -20.7124 179.217 -20.8961 176.988C-21.0741 174.82 -21.3401 169.907 -18.6683 169.05C-16.0635 168.215 -15.3535 171.002 -13.4606 172.029C-12.475 172.562 -11.6386 172.894 -10.7773 173.682C-9.87397 174.508 -9.4108 175.646 -8.35242 176.324C-7.51605 176.862 -6.43469 177.138 -5.52559 177.649C-4.38682 178.288 -4.15141 178.779 -2.74853 179.021C-2.28919 179.099 -1.81646 179.135 -1.35138 179.173C-2.85571 176.072 -3.62318 172.547 -3.38394 169.087C-3.19255 166.317 -1.37243 159.83 -0.0193081 157.407C1.54435 154.601 5.49654 151.428 8.0516 149.397C10.576 147.388 13.2842 146.315 16.2737 145.165C18.4039 144.349 22.8269 142.491 24.9743 143.132C27.4088 143.859 27.5293 146.894 25.7934 148.523C24.092 150.12 22.0154 151.42 20.3159 153.139C18.0842 155.397 17.4871 157.214 16.9206 160.285C16.5684 162.184 16.5646 164.101 16.668 166.03Z" fill="#B7DFE9"/>
<path opacity="0.2" d="M299.004 463C301.541 463.691 304.103 465.187 306.267 466.686C309.711 469.07 312.058 471.968 315.06 474.754C316.026 475.65 317.848 477.364 319.032 477.815C322.699 479.211 331.766 474.955 335.664 473.755C342.244 471.729 350.576 471.522 357.054 474.052C358.794 474.733 360.412 475.781 362.196 476.377C366.578 474.428 370.931 472.41 375.323 470.487C377.214 469.661 379.252 469.019 381.111 468.169C383.668 466.998 386.113 465.619 388.832 464.716C390.775 464.071 394.735 463.969 396.553 465.008C400.783 467.422 398.941 469.452 396.392 472.221C394.729 474.028 392.642 475.748 390.719 477.28C386.596 480.57 382.137 483.364 377.723 486.234C379.513 487.416 380.782 488.802 382.078 490.489C382.351 490.846 382.436 491.268 382.759 491.612C383.299 492.189 384.697 493.238 385.381 493.771C388.018 495.827 390.02 497.742 393.513 497.891C401.016 498.214 410.662 489.255 417.046 485.562C418.276 484.851 419.054 484.475 420.396 485.345C421.634 486.145 424.361 488.479 425.171 489.675C426.137 491.102 428.242 495.214 428.691 496.806C429.03 498.011 430.018 503.424 429.998 504.539C429.996 504.684 430.018 504.805 429.945 504.945C429.921 504.992 429.23 505.695 429.181 505.719C429.006 505.8 428.636 505.574 428.331 505.572C421.389 505.524 414.497 505.599 407.543 505.309C404.802 505.195 402.064 504.833 399.315 504.947L410.432 507.92C414.289 509.24 418.923 509.624 422.725 510.846C423.672 511.152 423.981 511.495 424.06 512.49C424.153 513.666 424.163 515.847 424.058 517.016C423.971 517.987 423.408 518.339 422.608 518.813C421.272 519.605 419.781 519.766 418.297 520.132C419.121 521.219 421.994 523.695 422.167 524.967C422.392 526.626 421.47 527.568 420.454 528.762C419.838 529.484 419.446 530.245 418.432 530.163C416.446 530.008 409.882 525.205 407.923 523.82C401.323 519.157 394.745 514.378 388.062 509.878C385.59 508.213 382.479 506.153 379.478 506.173C375.297 506.198 370.876 506.23 366.699 506.477C363.079 506.692 358.988 509.518 355.772 511.138C351.327 513.381 346.786 515.565 342.008 517.014C342.921 517.843 343.695 518.817 344.568 519.682C345.365 520.471 346.606 521.38 347.301 522.18C350.372 525.705 351.404 530.139 352.525 534.558C352.84 535.792 353.725 538.582 353.711 539.702C353.697 540.666 351.588 543.868 350.683 543.999C350.414 544.037 346.59 542.264 346.024 541.995C344.343 541.197 342.646 540.331 341.016 539.434C335.161 536.214 330.46 531.335 325.594 526.816L317.531 513.582C315.283 512.659 313.097 511.582 310.879 510.595C310.578 510.462 310.153 510.446 309.818 510.304C308.976 509.944 308.143 508.521 307.463 507.791C301.515 501.39 294.754 495.375 290.501 487.59C289.527 485.806 288.582 483.848 287.681 482.017C286.378 479.364 284.154 475.266 283.307 472.579C282.657 470.519 282.727 467.958 282 465.892V465.713C284.406 464.391 287.422 464.419 290.067 463.738L295.675 463H299.004ZM290.933 473.731C291.23 474.09 293.424 475.049 293.931 475.103C296.743 475.397 297.741 469.795 295.947 468.286C294.865 467.377 291.529 467.233 290.586 468.417C290.291 468.79 289.871 470.513 289.917 471.001C289.941 471.252 290.806 473.576 290.933 473.731Z" fill="#B7DFE9"/>
<path opacity="0.2" d="M152 476.371C152.272 475.49 152.257 474.513 152.404 473.598C153.03 469.725 154.231 464.985 156.158 461.569C157.419 459.332 161.117 453.671 162.969 452.135C164.261 451.063 167.337 448.727 168.862 448.368C170.694 447.937 174.893 447.518 175.997 449.394C176.554 450.341 177.367 454.148 177.536 455.36C177.956 458.348 178.167 461.085 178.167 464.08C178.167 465.408 178.083 466.899 178.157 468.219C178.212 469.195 178.586 470.188 178.688 471.135C178.845 472.604 178.92 474.092 179.077 475.569C179.151 476.244 178.994 477.588 179.383 478.098C179.483 478.227 180.225 478.82 180.392 478.929C181.955 479.958 187.976 480.899 189.938 480.893C190.426 480.891 192.937 480.706 193.229 480.5C193.351 480.414 194.009 478.91 194.18 478.618C195.478 476.387 197.127 474.563 198.521 472.459C199.777 470.563 200.64 468.37 201.923 466.514C205.466 461.381 211.454 456.863 217.932 456.688C222.496 456.565 226.497 457.105 230.955 457.863C236.867 458.868 240.689 459.829 246.054 462.548C251.564 465.341 251.337 466.522 252.289 472.252C252.689 474.656 253.139 476.135 252.96 478.711C252.635 483.417 248.171 482.854 244.63 482.729C238.426 482.512 232.373 481.039 226.224 480.887C225.58 480.869 224.192 480.791 223.631 480.906C223.172 481.002 221.402 482.161 220.814 482.461C219.638 483.058 218.439 483.606 217.258 484.194L211.338 488.852L217.149 491.016C224.526 494.255 231.375 498.781 229.996 507.935C229.468 511.453 228.507 513.902 226.582 516.857C220.985 525.458 212.064 531.391 203.017 535.909C198.729 538.049 191.257 540 186.602 538.432C185.892 538.193 185.005 537.562 184.353 537.306C183.738 537.064 183.11 537.171 182.493 536.711C182.187 536.48 181.605 535.548 181.495 535.18C181.404 534.869 181.286 532.836 181.314 532.471C181.4 531.403 181.98 530.218 182.13 529.226C182.587 526.216 182.207 525.591 184.41 523.158C186.713 520.613 189.425 518.011 191.583 515.383C195.212 510.956 197.214 505.541 193.947 500.238C193.12 498.894 191.967 497.778 191.271 496.363C189.972 496.919 188.678 497.624 187.393 498.261C186.769 498.568 185.999 498.777 185.397 499.1C184.289 499.692 183.185 500.66 182.066 501.29C178.123 503.499 174.18 503.707 169.757 504.088C164.625 504.533 161.415 502.943 158.335 498.876C153.756 492.83 152.062 485.109 152.153 477.635L152 476.754V476.371ZM199.318 481.984C194.196 482.25 191.396 490.351 196.186 493.026C200.068 495.196 203.987 492.544 205.222 488.719C206.429 484.972 202.929 481.796 199.318 481.984Z" fill="#B7DFE9"/>
<g opacity="0.2">
<path d="M483.963 336.667C483.97 336.712 483.701 337.163 483.65 337.221C483.494 337.398 483.312 337.518 483.109 337.638C480.067 338.545 477.091 339.641 473.937 340.263C471.017 340.838 467.987 341.043 465.069 341.663C464.657 341.752 464.158 341.955 463.75 341.995C463.421 342.027 462.749 341.89 462.379 341.842C459.663 341.501 456.751 341.069 454.03 340.5C452.641 340.208 450.068 339.699 448.83 338.902C447.038 337.749 445.808 336.231 444.616 334.39C442.315 330.834 441.863 327.509 442.458 323.889C442.677 322.556 443.092 321.342 443.385 320.059C443.703 318.669 444.644 318.457 445.617 317.725C446.505 317.057 447.335 316.305 448.231 315.652C452.133 312.81 456.335 310.367 460.237 307.519L465.822 305.487C466.982 306.027 467.511 307.4 467.178 308.495C466.409 311.01 464.901 313.203 465.264 316.257C465.351 316.985 465.61 318.443 466.344 318.811C466.635 318.958 467.501 319.114 467.689 318.909C469.603 315.421 471.498 311.807 472.809 307.909C473.459 305.979 474.026 303.821 474.879 302.02C475.386 300.952 476.742 300.74 477.819 300.486C479.646 300.055 482.045 299.964 483.991 299.875C487.284 299.724 490.478 299.725 493.894 300.522C494.551 300.675 495.246 300.975 495.915 301.051C497.319 301.211 498.194 300.917 499.511 302.273C501.218 304.03 500.955 305.593 501.032 307.554C501.109 309.512 501.305 311.382 500.877 313.213C500.436 315.11 499.553 317.417 498.744 319.106C498.317 319.993 497.763 320.713 497.318 321.55C496.883 322.368 496.714 323.538 496.111 324.227C494.718 325.822 492.605 326.595 490.626 327.227C486.75 328.465 481.891 329.286 477.599 329.028C476.921 328.988 476.218 328.813 475.544 328.904C474.667 329.025 473.62 330.012 472.854 330.467C471.941 331.008 470.262 331.373 470.711 333.016C471.106 334.464 472.236 334.589 473.28 334.689C476.328 334.984 479.296 334.81 482.264 334.661C482.561 334.704 482.908 335.138 483.11 335.401C483.218 335.541 483.951 336.594 483.963 336.667Z" fill="#B7DFE9"/>
<path d="M499.677 326.087C499.679 326.033 500.232 325.508 500.324 325.4C502.032 323.365 503.73 321.326 505.393 319.239C506.911 317.334 509 315.232 508.871 312.251C508.806 310.751 508.572 309.525 508.233 308.027C507.898 306.544 507.572 305.042 507.505 303.573C508.635 302.402 509.926 301.414 511.054 300.241C512.527 298.709 513.627 297.225 511.243 294.964C509.632 293.434 508.187 293.962 506.735 294.62C505.657 295.11 504.653 296.017 503.612 296.493C503.505 296.542 502.805 296.658 502.693 296.631C502.558 296.599 502.037 296.13 501.86 296.005C500.845 295.29 499.332 294.152 498.25 293.829C495.739 293.077 494.16 293.209 491.791 293.511C489.057 293.859 486.386 294.427 483.64 294.734C483.489 294.701 483.322 294.103 483.288 293.943C482.956 292.355 484.315 291.732 485.172 290.955C491.52 285.204 497.279 279.183 505.915 276.891C507.342 276.512 509.47 276.037 510.977 276.001C512.017 275.975 514.712 277.379 515.78 277.995C520.672 280.82 524.315 284.02 527.453 289.211C529.332 292.319 530.128 297.029 530.649 300.414C531.373 305.115 530.151 307.503 528.167 310.982C525.839 315.061 523.143 317.707 519.324 320.157C517.799 321.135 516.278 322.186 514.728 323.127C512.934 324.213 510.876 324.787 508.927 325.567C507.838 326.004 506.815 326.566 505.706 326.962C504.803 327.285 503.862 327.566 502.956 327.873C501.855 328.248 500.493 327.865 499.819 326.45C499.794 326.398 499.676 326.113 499.677 326.087Z" fill="#B7DFE9"/>
</g>
</svg>
