<svg xmlns="http://www.w3.org/2000/svg" width="129" height="36" viewBox="0 0 129 36" fill="none">
  <path d="M1.17218 19.2772C37.8643 20.5609 74.5565 21.8446 111.248 23.1284C106.584 25.5682 101.919 28.008 97.2542 30.4478C92.3884 32.9928 97.0452 37.3736 101.058 35.2747C108.529 31.3672 116 27.4596 123.471 23.5519L126.564 21.9342C128.343 21.0037 129.628 18.2879 127.573 16.8745C127.361 16.7288 127.149 16.5829 126.937 16.4372L122.805 13.5947C116.462 9.23227 110.12 4.86967 103.778 0.507166C100.78 -1.55469 94.1232 3.16302 97.9564 5.79974C102.403 8.85856 106.85 11.9175 111.297 14.9763C75.3965 13.7203 39.4953 12.4644 3.59428 11.2083C1.18403 11.124 -1.6389 19.1789 1.17218 19.2772Z" fill="black"/>
</svg>