<svg xmlns="http://www.w3.org/2000/svg" width="114" height="32" viewBox="0 0 114 32" fill="none">
  <path d="M112.469 17.9724C80.0778 18.7556 47.6859 19.5389 15.2943 20.3221C19.3875 22.5196 23.4808 24.7171 27.574 26.9146C31.8437 29.2069 27.6925 33.0283 24.1713 31.1379C17.6156 27.6185 11.0599 24.099 4.50421 20.5794L1.7902 19.1224C0.229112 18.2843 -0.878538 15.8754 0.948215 14.6478C1.13665 14.5212 1.32514 14.3945 1.51357 14.2679L5.18735 11.7989C10.8256 8.00962 16.464 4.2202 22.1024 0.430878C24.7673 -1.36008 30.597 2.86656 27.1892 5.15686C23.2358 7.81378 19.2823 10.4708 15.3288 13.1278C47.0221 12.3614 78.7156 11.5952 110.409 10.8288C112.537 10.7773 114.951 17.9124 112.469 17.9724Z" fill="black"/>
</svg>