<svg width="810" height="589" viewBox="0 0 810 589" fill="none" xmlns="http://www.w3.org/2000/svg">
<g clip-path="url(#clip0_376_1479)">
<path d="M93.2009 633.481C77.9107 632.472 69.8908 624.74 60.5611 613.939C46.3355 597.479 31.6651 580.371 18.0244 563.453C17.6567 562.994 17.1594 562.518 16.9808 561.957H70.987C71.0605 561.957 71.3687 561.831 71.3092 561.635C71.2706 561.516 69.9188 560.014 69.6842 559.74C53.3083 540.699 35.577 522.881 19.926 503.188C18.0314 500.803 11.2513 492.864 11.0236 490.461C10.9606 489.81 10.9746 489.866 11.7031 489.786C23.155 488.518 36.8798 488.882 48.4508 489.386C50.8112 489.491 54.7091 489.463 56.8804 489.947C60.3195 490.717 67.5654 494.044 71.008 495.624C84.9569 502.025 91.5409 509.002 100.083 521.399C106.278 530.396 111.633 539.841 115.481 550.103C115.723 550.131 115.583 549.836 115.555 549.707C115.383 548.985 115.065 548.267 114.893 547.497C113.926 543.161 114.112 536.637 114.704 532.193C115.121 529.034 117.94 525.258 119.933 522.702C120.612 521.83 124.759 517.06 125.476 516.902C126.727 516.629 129.949 520.191 130.859 521.112C136.802 527.136 142.094 533.954 147.922 540.139C164.07 557.278 181.798 572.968 197.039 590.948C197.736 591.767 198.839 593.203 199 594.268V594.79C191.568 595.308 184.105 595.445 176.646 595.315C172.759 595.248 166.255 595.413 162.641 594.73C159.801 594.194 153.651 591.631 150.797 590.419C143.87 587.481 137.646 583.551 132.68 577.853C139.874 594.832 134.319 614.79 119.561 625.64C113.3 630.242 106.022 632.753 98.2825 633.481C96.6155 633.4 94.8539 633.59 93.2009 633.481ZM127.308 531.506C120.43 532.434 121.305 543.589 129.08 542.661C136.095 541.827 135.065 530.463 127.308 531.506ZM115.678 550.232V550.362L115.741 550.299L115.678 550.232ZM115.87 550.754C115.965 550.614 115.807 550.397 115.744 550.495C115.65 550.635 115.804 550.852 115.87 550.754ZM115.937 551.013V551.146L116.003 551.08L115.937 551.013ZM116.129 551.664C116.224 551.524 116.07 551.307 116.003 551.405C115.909 551.545 116.066 551.763 116.129 551.664Z" fill="#F8F5ED"/>
<path d="M16.1764 103.143C14.206 102.268 12.1915 101.566 10.2777 100.558C2.85249 96.649 -2.45756 89.4945 -8.61432 83.9421C-12.3348 79.8942 -13.4207 74.304 -14.8403 69.1104C-15.2464 67.6311 -15.687 66.1422 -15.9609 64.6314H45.2416C45.7106 64.6314 51.3794 60.6811 52.1632 60.061C50.6209 60.1743 49.0754 60.2058 47.5236 60.1869C42.9942 60.1303 36.1481 60.1177 31.817 59.2835C30.2022 58.9719 27.4606 57.6342 25.8459 56.9512C21.3826 55.072 15.2636 52.4815 11.5462 49.4661C1.46438 41.2854 -7.96905 28.5533 -12.9706 16.5765C-19.0078 2.11634 -14.6892 -15.5828 -11.4818 -30.2318L-3.56238 -45.0005C1.7697 -36.9016 7.02309 -28.7524 12.7077 -20.8928C25.273 -3.52419 38.0241 13.7279 50.794 30.9234C53.353 34.3732 56.1859 37.7538 58.5686 41.32C59.1761 42.2297 59.5696 43.2432 60.2904 44.0522C58.7795 40.9864 57.511 37.7853 56.0379 34.7037C55.3329 33.2243 54.6656 32.5445 54.0864 30.7598C50.646 20.1334 56.0663 12.2328 67.0011 11.2382L176.734 11.3232C172.368 18.229 167.41 24.7446 162.746 31.4522C160.804 34.2442 160.262 35.5127 157.599 37.8577C153.482 41.4806 147.873 45.6638 143.158 48.4526C140.539 50.0012 138.172 51.8048 135.563 53.3692C132.802 55.0248 127.272 57.6814 124.193 58.1315C124.014 58.1567 123.822 58.1504 123.778 58.3739L124.618 58.377L124.26 58.6131C128.802 58.8901 133.372 58.6446 137.923 58.7327C155.783 59.0758 173.608 58.5344 191.474 58.1284C193.98 58.0717 196.494 58.1819 199 58.1347V58.2543C196.46 62.6137 193.479 66.7025 190.552 70.807C188.496 73.6934 186.369 76.841 184.194 79.6109C180.218 84.6723 175.317 87.3289 169.749 90.3223C154.625 98.4495 134.178 103.398 117.155 99.4724C107.48 97.2408 94.461 93.0922 87.3033 86.1171C82.072 81.0211 75.997 74.3009 72.5598 67.886C72.3395 67.4737 71.9146 65.497 71.2945 66.4916C70.0638 68.4652 69.3839 70.7818 68.3892 72.853C65.9844 77.8734 60.5139 85.113 56.6202 89.1262C47.8698 98.141 38.9747 99.2584 27.149 101.418C23.6646 102.057 20.1204 102.485 16.658 103.143H16.1764ZM65.4934 18.2102C60.0889 19.0569 59.2359 28.3266 65.9498 27.93C72.4339 27.5492 72.0499 17.1809 65.4934 18.2102ZM95.613 58.4966C94.2564 57.949 93.0572 56.671 92.0625 55.6071C88.7701 52.0944 86.3181 47.8073 83.8409 43.7311C81.2914 39.5448 79.8088 32.3556 79.0377 27.4736C78.7323 25.5504 78.7607 23.3628 78.4018 21.4868C78.1343 20.0673 77.6464 22.5633 77.574 23.0701C77.1711 25.9565 76.7902 28.846 76.3779 31.7418C75.1189 40.5835 74.0738 49.4692 73.3467 58.3739C74.3697 58.3046 75.3707 58.4179 76.3811 58.5061C80.1267 58.8397 84.0959 58.6257 87.9738 58.7327C90.5957 58.8051 93.2146 59.2993 95.8523 59.0947C95.6791 58.6572 95.0717 58.8397 95.613 58.4966Z" fill="#F8F5ED"/>
<path d="M504.188 476.843C510.224 473.177 514.179 467.186 519.534 462.708C527.34 456.182 536.739 452.533 546.971 452.07C555.179 451.7 567.664 453.724 575.385 456.592C580.833 458.62 587.624 461.356 590.558 466.675C592.058 469.403 591.233 472.823 588.469 474.332C586.51 475.402 579.304 475.865 576.793 475.966C574.105 476.078 571.188 475.765 568.541 475.97C566.847 476.102 564.557 476.561 562.839 476.875C559.444 477.491 556.277 477.857 553.63 480.194C550.157 483.256 546.934 487.557 544.995 491.766C544.806 492.181 543.764 494.836 543.917 495.009C544.049 495.154 547.389 495.633 547.852 495.685C553.77 496.369 559.319 495.625 565.205 496.884C578.398 499.705 590.799 502.783 600.978 512.105C605.312 516.076 609.581 525.532 609.87 531.386C610.007 534.202 610.394 539.477 608.559 541.634C603.964 547.037 594.645 539.69 589.926 537.634C584.309 535.184 577.807 534.404 571.792 533.378C578.032 540.008 584.591 547.552 587.363 556.42C588.823 561.096 589.23 569.404 588.892 574.321C588.598 578.662 583.524 588.174 581.364 592.338C579.034 596.829 576.668 603.649 570.315 601.729C565.101 600.156 566.593 593.224 566.356 588.983C566.086 584.106 565.414 578.928 564.248 574.192C563.125 569.622 561.512 564.809 557.758 561.739C557.677 565.546 558.156 569.545 557.907 573.351C557.52 579.278 554.571 588.955 550.62 593.457C547.208 597.348 540.082 600.921 535.431 603.427C526.636 608.171 517.289 611.028 507.801 614.065C502.39 615.039 499.042 609.245 502.539 604.92C504.494 602.502 507.021 600.828 508.968 598.136C511.322 594.885 514.215 590.238 516.211 586.734C518.782 582.219 520.335 577.894 520.608 572.671C520.757 569.823 520.653 566.926 520.701 564.073C517.337 567.912 514.533 572.225 511.23 576.115C502.434 586.484 486.646 591.043 473.706 593.376C467.252 594.539 454.626 594.044 448.591 591.353C446.028 590.206 443.719 588.625 441.413 587.072C438.56 585.156 435.47 583.796 436.219 579.588C436.963 575.391 441.224 575.19 444.387 573.77C447.42 572.41 450.836 570.511 453.874 568.978C459.587 566.101 463.349 562.693 468.411 559.04C470.721 557.37 472.917 556.296 474.953 554.215C478.019 551.081 480.643 547.387 482.622 543.481C478.768 544.611 475.006 546.18 471.002 546.764C466.56 547.412 457.632 547.999 453.504 546.611C441.152 542.459 434.279 535.055 430.61 522.594C429.685 519.456 429.129 516.217 428.296 513.055C427.122 508.572 425.605 504.718 425.218 500.006C424.844 495.424 424.285 485.039 429.902 483.228C435.378 481.462 436.871 487.352 440.85 489.525C442.922 490.652 444.68 491.352 446.491 493.017C448.39 494.764 449.364 497.17 451.589 498.602C453.347 499.741 455.62 500.324 457.531 501.402C459.925 502.754 460.42 503.792 463.37 504.303C464.335 504.468 465.329 504.545 466.307 504.625C463.144 498.071 461.531 490.619 462.034 483.305C462.436 477.45 466.262 463.738 469.107 458.616C472.394 452.686 480.703 445.978 486.074 441.685C491.381 437.44 497.075 435.171 503.359 432.741C507.838 431.015 517.136 427.088 521.65 428.444C526.768 429.981 527.022 436.394 523.373 439.838C519.796 443.214 515.43 445.962 511.857 449.595C507.166 454.367 505.91 458.21 504.719 464.7C503.979 468.715 503.971 472.767 504.188 476.843Z" fill="#F8F5ED"/>
<path d="M741.055 457.652C741.353 454.34 744.831 451.368 747.403 449.553C750.407 447.43 751.546 447.426 755.212 447.504C762.005 447.646 768.066 448.031 771.792 454.496C774.824 459.757 778.43 464.095 781.844 469.08C787.368 477.137 792.063 485.438 797.841 493.37C798.534 494.322 801.775 499.325 802.26 499.679C802.596 499.923 803.474 500.015 803.849 500.454C803.661 496.551 803.583 492.624 803.654 488.711C803.725 484.497 803.863 480.183 804.04 475.959C804.093 474.706 804.666 471.087 804.507 470.188C804.464 469.954 802.522 466.512 802.249 466.066C796.939 457.401 790.63 449.903 783.805 442.483C778.766 437.006 774.803 430.634 770.663 424.608C769.963 423.586 769.733 422.641 769.337 421.494C765.816 411.315 761.216 396.313 769.075 387.074C770.734 385.125 774.683 384.251 777.068 384.87C781.459 386.006 786.15 397.243 787.927 401.256C794.808 416.817 798.658 433.486 804.503 449.415C804.839 449.694 805.625 453.448 805.83 453.399C805.975 453.363 806.142 451.064 806.166 450.742C806.672 444.012 807.044 437.279 807.033 430.552C807.015 416.566 806.548 401.111 810.115 387.541C811.573 382.004 814.209 382.022 818.943 380.136C824.332 377.995 828.379 375.448 834.423 376.106C835.339 376.205 836.16 376.665 836.677 377.425C838.485 380.093 840.491 385.217 840.661 388.419C841.167 397.869 839.727 408.983 837.055 418.059C835.622 422.917 831.854 427.41 829.338 431.791C828.387 433.443 827.619 435.301 826.699 436.978C821.558 446.372 816.105 455.656 810.278 464.612L809.358 475.718C810.876 472.527 812.758 469.222 814.785 466.317C818.653 460.773 823.313 454.821 827.481 449.45C831.065 444.829 834.267 441.694 838.389 437.654C845.788 430.4 851.7 421.3 860.783 415.992C870.531 410.296 878.75 407.416 888.427 415.239C891.781 417.949 892.921 419.821 893.211 424.272C893.522 429.119 890.363 435.856 887.412 439.628C883.728 444.337 878.973 449.885 874.904 454.273C872.434 456.934 869.671 459.481 866.84 461.76C869.717 460.249 872.756 459.566 875.958 460.366C878.69 461.045 880.823 463.005 883.077 464.551C884.376 465.443 886.474 466.165 886.976 467.704C888.254 471.596 888.144 477.937 886.877 481.8C884.758 488.275 882.115 490.19 877.996 495.044C875.622 497.836 874.547 499.336 871.447 501.54C864.027 506.816 855.249 510.138 847.815 515.488C843.187 518.825 839.454 520.661 834.635 523.467C830.764 525.724 827.031 528.527 823.104 530.773C820.004 532.55 816.519 533.852 813.236 535.253C813.094 535.437 813.098 537.436 813.137 537.786C813.214 538.536 814.541 543.193 814.371 543.444C814.318 543.525 813.936 543.476 813.89 543.607C813.841 543.755 814.067 545.206 814.106 545.514C814.775 550.697 815.882 555.821 816.894 560.94C822.962 555.76 829.158 550.711 835.548 545.924C840.512 542.205 845.731 538.876 850.943 535.525C852.917 534.259 858.564 530.193 860.44 529.853C864.855 529.054 873.471 530.19 877.965 531.212C879.008 531.449 880.133 531.952 881.114 532.121C882.09 532.291 883.113 532.228 884.132 532.387C889.825 533.261 895.978 537.475 900.075 541.37C900.588 541.859 903.861 545.231 903.84 545.623C903.826 545.924 899.035 547.828 898.493 548.394C892.026 551.766 885.37 552.272 878.414 553.722C873.188 554.812 867.778 556.663 862.591 557.512C860.383 557.873 857.828 557.795 855.705 558.262C854.534 558.517 853.381 559.132 851.962 559.444C848.576 560.187 845.115 560.399 841.701 560.969C838.941 561.429 836.259 562.182 833.528 562.745C828.337 563.814 823.132 564.712 818.058 566.262L822.69 587.75L817.273 589.105L811.47 562.497C808.703 562.066 806.166 560.721 803.583 559.709C796.797 557.041 789.89 554.377 783.631 550.58C774.308 544.93 765.958 537.818 757.866 530.554C756.44 529.273 754.409 527.607 753.379 526.05C751.1 522.607 748.348 518.075 746.642 514.338C745.064 510.878 744.824 509.133 744.721 505.34C744.576 499.87 744.24 493.816 748.687 489.875C750.623 488.155 752.562 488.109 755.063 488.233C752.601 486.312 750.499 484.228 748.61 481.74C747.191 479.876 745.751 477.77 744.919 475.577C744.25 473.822 743.67 472.113 742.97 470.375C741.795 467.453 741.215 464.484 741.055 461.325C741.002 460.267 740.963 458.685 741.055 457.652ZM811.962 525.286C812.5 524.316 813.094 523.361 813.703 522.434C817.761 516.228 821.95 509.597 826.281 503.614C827.343 502.145 828.677 500.097 829.933 498.858C830.269 498.526 830.846 498.243 831.146 497.945C832.247 496.849 833.503 494.832 834.575 493.551C836.118 491.704 837.961 489.839 839.341 487.883C841.145 485.335 841.683 483.407 844.135 481.082C846.467 478.867 848.831 476.705 851.141 474.466C852.241 473.401 853.052 472.162 854.18 471.129C855.872 469.583 858.034 468.56 859.544 466.834C858.253 467.612 856.958 468.811 855.635 469.491C853.957 470.354 852.004 470.598 850.299 471.401C848.685 472.159 847.139 473.298 845.455 474.094C840.905 476.249 835.743 478.259 831.061 480.279C826.026 482.451 821.013 483.909 815.999 485.891C814.301 486.559 812.638 487.607 810.996 488.229C810.695 488.346 809.174 488.668 809.11 488.76C808.944 489.001 809.046 493.894 809.064 494.612C809.252 503.026 810.317 511.37 811.205 519.716L811.962 525.286ZM804.333 507.509C804.153 507.492 803.99 507.605 803.813 507.594C802.182 507.477 797.225 504.82 795.414 504.014C793.697 503.246 791.999 502.464 790.294 501.692C785.896 499.711 781.452 498.349 776.944 496.689C771.934 494.842 766.715 492.535 761.591 491.173C761.241 491.078 759.468 490.345 759.313 490.6C763.085 494.007 766.75 497.485 770.034 501.374C775.776 508.171 780.411 515.753 785.839 522.766C790.506 528.792 795.587 534.563 800.371 540.507C803.396 544.272 806.223 548.228 809.407 551.854C808.778 547.856 808.183 543.84 807.727 539.814C807.44 537.28 807.316 534.729 807.037 532.196C806.127 523.969 805.147 515.746 804.333 507.509Z" fill="#F8F5ED"/>
<path d="M659.361 175.297C659.855 173.374 659.72 171.276 659.942 169.294C660.887 160.904 662.977 150.59 666.76 143.047C669.236 138.108 676.59 125.558 680.405 122.065C683.068 119.627 689.43 114.288 692.666 113.359C696.552 112.245 705.521 110.913 708.083 114.832C709.375 116.811 711.512 124.912 712 127.502C713.208 133.881 713.942 139.744 714.251 146.184C714.387 149.039 714.361 152.252 714.655 155.083C714.875 157.176 715.78 159.272 716.095 161.297C716.583 164.439 716.899 167.631 717.388 170.79C717.615 172.233 717.416 175.139 718.305 176.195C718.532 176.463 720.185 177.662 720.554 177.88C724.014 179.93 737.033 181.334 741.244 181.119C742.29 181.065 747.66 180.41 748.266 179.936C748.518 179.74 749.776 176.438 750.113 175.793C752.67 170.863 756.019 166.772 758.794 162.105C761.296 157.9 762.922 153.096 765.484 148.974C772.56 137.575 784.944 127.247 798.829 126.206C808.61 125.472 817.252 126.222 826.897 127.394C839.688 128.945 847.989 130.618 859.782 135.913C871.895 141.351 871.53 143.914 874.164 156.136C875.269 161.262 876.386 164.395 876.267 169.953C876.056 180.104 866.417 179.351 858.804 179.446C845.468 179.619 832.326 177.074 819.115 177.377C817.731 177.405 814.744 177.381 813.553 177.687C812.577 177.939 808.898 180.613 807.666 181.318C805.205 182.723 802.688 184.024 800.214 185.408L787.99 196.032L800.682 200.087C816.847 206.293 832.01 215.319 829.995 235.142C829.222 242.758 827.413 248.123 823.587 254.675C812.459 273.741 793.927 287.413 774.975 298.055C765.995 303.096 750.159 308.059 740.007 305.166C738.459 304.727 736.491 303.461 735.065 302.977C733.721 302.52 732.384 302.815 731.014 301.888C730.333 301.424 728.986 299.479 728.714 298.7C728.485 298.04 728.024 293.682 728.047 292.894C728.12 290.589 729.244 287.982 729.462 285.833C730.134 279.317 729.254 278.011 733.732 272.553C738.412 266.846 743.965 260.972 748.324 255.101C755.657 245.211 759.396 233.364 751.839 222.297C749.925 219.493 747.336 217.214 745.696 214.242C742.967 215.571 740.261 217.219 737.57 218.721C736.262 219.446 734.632 219.973 733.372 220.731C731.056 222.116 728.787 224.312 726.45 225.78C718.215 230.935 709.774 231.788 700.322 233.062C689.354 234.545 682.303 231.457 675.274 223.03C664.824 210.502 660.393 194.076 659.82 177.999L659.4 176.12L659.361 175.297ZM761.486 182.502C750.521 183.601 745.346 201.304 755.902 206.564C764.455 210.829 772.593 204.725 774.849 196.375C777.054 188.194 769.216 181.726 761.486 182.502Z" fill="#F8F5ED"/>
<path d="M570.769 96.3457L561.837 90.3477C555.028 82.8731 548.362 75.6654 540.488 69.2803C538.877 67.9744 537.08 66.8849 535.517 65.5165C530.399 66.897 525.847 69.9729 520.556 70.8315C512.901 72.0724 509.447 69.4799 502.927 66.7503C491.374 61.9139 480.746 58.0828 473.673 46.9815C473.532 46.7578 472.957 45.5361 472.889 45.4856C472.81 45.4303 472.012 45.2307 471.798 45.1369C468.022 43.5087 464.085 41.9263 460.446 40.0239C459.645 39.6055 457.512 38.6218 457.175 37.9004C457.13 37.8018 456.971 37.4266 457.005 37.3737C457.173 37.1187 462.231 35.998 462.911 35.7936C466.487 36.063 469.71 37.6334 473.149 38.4824C474.087 37.7897 475.273 37.2366 476.427 37.0274C480.297 36.3203 485.828 36.5223 489.411 38.2202C489.989 38.4944 490.585 38.9128 491.143 39.2327C485.665 29.7836 482.425 19.601 479.265 9.20677C477.026 1.8548 476.393 -1.36303 477.981 -9.13827C478.428 -11.334 478.654 -11.8222 479.946 -13.5923C482.581 -17.2021 485.624 -20.9514 488.45 -24.4362C491.076 -27.6733 494.294 -31.8772 497.283 -34.6717C505.467 -42.3267 514.05 -48.95 524.257 -53.7431C524.671 -53.8393 528.386 -53.8369 528.591 -53.6998C529.493 -53.1009 528.745 -50.1885 528.511 -49.3011C527.602 -45.8331 525.945 -42.2594 524.724 -38.8588C523.459 -35.3427 522.333 -31.7762 520.955 -28.301C517.788 -20.3141 513.762 -12.7217 510.679 -4.70833C511.802 -2.39957 512.312 -0.0402985 512.451 2.53301C512.824 9.52183 512.403 17.3259 511.792 24.3003C511.564 26.9241 511.208 29.5431 510.958 32.1621C516.426 24.2161 522.371 16.6092 527.963 8.75224C531.347 3.99282 534.483 -1.10088 538.083 -5.68474C540.765 -9.09978 543.812 -12.3345 546.63 -15.6485C547.965 -17.2141 549.018 -19.0924 550.801 -20.1289C553.951 -21.9615 558.624 -23.1544 562.171 -24.1067C577.358 -28.1735 594.018 -31.502 609.787 -32.0239C610.826 -32.0575 612.146 -32.108 612.772 -31.0932L613 -27.7406V-24.7633C610.083 -18.3012 603.623 -15.2637 597.529 -12.4691C591.851 -9.86697 586.055 -7.45238 580.256 -5.13641L585.143 -5.04742C586.928 -4.60011 590.622 -5.43944 591.716 -3.62129C592.991 -1.49771 591.848 5.42618 591.389 7.99467C591.163 9.25728 590.961 11.1019 590.232 12.1384C588.72 14.2885 580.478 18.3432 577.808 19.5289C570.937 22.5832 563.484 24.1247 556.072 25.2815L580.403 29.4589C580.564 29.5888 580.718 30.2526 580.771 30.4859C581.495 33.6484 581.974 37.1452 582.027 40.3919C582.039 40.9883 582.118 42.198 582.019 42.7151C581.88 43.4318 579.357 44.9902 578.667 45.411C570.709 50.2498 561.212 52.5538 552.631 56.0674C554.757 56.4955 556.861 57.0799 558.934 57.7172C563.941 59.2612 569.1 61.7119 574.117 62.9071C576.531 63.4819 578.106 63.114 579.886 65.1365C581.351 66.7984 584.443 72.8709 584.977 75.0209C585.038 75.2542 584.939 75.627 585.045 75.7929C585.196 76.031 589.453 77.8828 590.119 78.2508C591.103 78.7943 592.688 79.6649 592.885 80.8818C593.282 83.3421 591.225 84.6432 589.112 85.0616C585.177 85.8432 581.31 86.2256 577.327 85.646C573.419 85.0785 569.29 83.0439 565.791 81.2786C567.44 83.1521 569.227 84.9366 570.766 86.9086C571.635 88.0197 573.612 90.5858 573.749 91.923C573.958 93.9648 572.77 95.4462 571.048 96.3457H570.769ZM482.461 40.0143C479.212 40.0528 479.094 44.6775 482.189 45.1633C486.299 45.8055 486.326 39.9686 482.461 40.0143Z" fill="#F8F5ED"/>
<path d="M38.4018 380.267C32.1494 379.762 24.8459 377.831 18.4982 376.84C9.24494 375.395 -0.0781441 374.224 -9.38535 373.173C-12.6624 372.801 -16.6126 372.842 -19.7627 372.223C-24.0368 371.382 -30.086 368.591 -34.4078 367.089C-36.5798 366.33 -38.8026 365.682 -41 364.999C-40.746 350.554 -39.4917 336.118 -37.542 321.826C-31.0736 324.392 -24.3544 327.71 -17.4891 329.025C-11.9352 330.092 -5.75583 331.085 -0.148006 331.914C26.7098 335.884 54.6886 329.037 79.1173 318.225C79.8889 317.885 85.6872 314.611 85.9603 314.878C86.2429 315.154 87.0114 321.721 87.1448 322.68C87.9735 328.637 88.5197 334.639 89.3072 340.602C90.1995 347.347 91.7237 353.939 92 360.785V361.239C89.285 362.887 86.5097 365.002 83.7026 366.457C80.2445 368.244 73.3411 371.614 69.8037 372.788C66.552 373.871 62.5415 374.544 59.1215 375.545C55.1935 376.697 49.2586 379.387 45.6577 380.051C44.74 380.219 43.7905 379.933 42.93 380.267C41.4566 380.181 39.8593 380.384 38.4018 380.267Z" fill="#F8F5ED"/>
<path d="M42.1761 191.953C46.5931 191.613 50.2417 194.868 49.7082 199.412C49.6288 200.075 48.9366 201.469 48.9684 201.835C48.9874 202.041 50.3497 204.839 50.5878 205.664C52.9948 214.009 53.4902 224.606 54.9032 233.36C55.7225 238.441 56.8403 243.477 57.6817 248.552C60.2253 263.879 62.7212 279.207 65.2774 294.529C65.8617 294.91 74.2925 299.041 74.0321 299.473C73.9686 299.581 72.0665 300.464 71.7616 300.6C50.9911 310.108 25.6194 316.385 2.72128 313.038C-2.54994 312.27 -8.69441 311.355 -13.8704 310.301C-19.1924 309.222 -24.4096 306.335 -29.5412 304.608C-29.5697 304.249 -28.8616 303.985 -28.5853 303.826C-26.8928 302.855 -23.692 301.909 -22.7806 300.121C-22.0058 298.587 -21.1548 293.986 -20.5229 291.96C-16.741 279.801 -12.9177 267.153 -8.21492 255.341C-3.06436 242.41 3.43893 230.144 9.24046 217.528C9.48814 216.985 11.0949 213.549 11.0695 213.32C11.0536 213.149 7.94805 212.945 7.68132 212.939C0.54611 212.764 -6.63355 212.869 -13.7688 212.647C-15.4644 212.596 -17.5285 212.536 -19.0273 211.713C-19.402 211.51 -20.072 211.259 -20.0275 210.777L-16.9887 198.77C-10.1773 198.488 -3.22949 198.612 3.60405 198.894C5.75065 198.983 7.93853 199.434 10.0851 199.51C11.4379 199.558 15.7501 199.644 16.852 199.32C17.1251 199.24 17.8491 198.351 18.1825 198.084C18.4619 197.856 19.4495 197.414 19.4908 197.354C19.6178 197.179 19.7226 196.068 19.8718 195.697C21.3738 191.962 24.3587 191.324 28.0676 191.21C28.5852 188.504 28.6583 185.529 29.2362 182.865C29.3378 182.391 29.3187 181.648 29.8713 181.534L42.3317 181.001C43.4812 184.5 42.7667 188.403 42.1761 191.953ZM37.6447 204.337C36.6064 204.61 29.3473 203.883 29.0393 204.184C28.9536 204.27 29.2838 206.191 29.0393 206.601C30.0173 206.509 37.1875 205.744 37.486 205.385C37.5558 205.302 37.4225 204.575 37.6447 204.337ZM30.2079 223.698C27.7564 224.117 20.5672 228.565 18.119 230.033C16.3915 231.071 16.3947 230.375 15.3182 232.519C4.02003 255.036 32.961 266.236 43.8051 246.818C48.3428 238.695 45.1578 229.493 36.9461 225.501C35.4442 224.771 31.8051 223.424 30.2079 223.698ZM-4.36312 292.039C-1.62271 282.116 1.33679 272.247 3.52149 262.174C-0.530365 271.99 -3.40096 282.253 -6.70659 292.341C-6.72564 292.484 -6.83043 292.811 -6.66848 292.827C-6.45255 292.849 -4.81085 292.023 -4.36312 292.039ZM51.0832 289.207L47.3806 269.265C36.5302 269.951 25.7686 272.51 14.8673 272.012L10.4662 288.222C14.9562 287.571 19.3066 286.2 23.8284 285.72C26.7975 285.403 29.7887 284.777 32.8943 284.971C37.143 285.241 44.3449 286.978 48.4857 288.257C48.7905 288.353 50.9975 289.315 51.0832 289.207Z" fill="#F8F5ED"/>
</g>
<defs>
<clipPath id="clip0_376_1479">
<rect width="810" height="589" fill="white"/>
</clipPath>
</defs>
</svg>
