 <svg
                      class="upcoming-events__image-overlay"
                      xmlns="http://www.w3.org/2000/svg"
                      viewBox="0 0 600 600"
                      fill="none"
                    >
                      <path d="M0 583.35C3.91202 586.008 7.8782 588.608 11.9082 591.14C16.2153 593.847 20.9292 596.863 25.9111 600H0V583.35ZM242.395 583.646C241.477 589.371 239.828 594.811 237.625 600H216.122C224.879 594.391 233.556 588.594 242.395 583.646ZM396.386 573.577C399.541 582.257 402.903 591.076 406.147 600H388.203C391.118 591.135 393.816 582.283 396.386 573.577ZM506.777 354.949C529.279 352.839 555.301 356.02 576.697 363.353C586.328 366.646 593.502 372.421 600 379.288V600H562.747C563.669 550.551 549.939 503.387 534.44 454.603C525.407 426.152 508.734 404.132 497.192 376.972C496.285 374.851 490.165 359.295 490.453 358.364C490.814 357.277 504.566 355.165 506.777 354.949ZM0 390.509C21.4518 404.364 44.3429 414.765 68.2393 419.192C92.7242 423.739 117.777 425.091 142.188 430.027C130.024 436.905 118.044 444.55 105.651 450.984C82.9293 462.779 60.877 466.841 35.5439 466.993C24.9841 467.057 12.4019 466.822 0 466.277V390.509ZM57.959 0C46.6139 29.1688 44.7938 60.7653 52.0938 97.5801C56.2968 118.787 80.5453 155.736 94.1113 173.236C106.336 189.01 122.136 201.296 136.309 215.07C114.983 216.258 92.9881 214.146 72.2764 208.741C58.5282 205.149 48.6353 198.367 35.9531 192.579C23.3082 186.796 11.5356 182.044 0 176.938V0H57.959ZM522.881 114.462C551.868 103.946 570.774 99.698 600 106.633V188.431C589.66 182.56 578.783 177.485 567.412 173.246C535.443 161.331 500.499 159.196 470.305 142.337C486.987 131.279 504.118 121.25 522.881 114.462ZM304.653 0C287.634 13.7473 272.732 30.2453 260.616 48.377C258.572 43.9712 256.472 39.5061 254.814 34.9424C249.782 20.9859 252.959 16.2783 252.831 2.62207C252.823 1.75004 252.792 0.875638 252.749 0H304.653Z" fill="#F68E51"/>
                    </svg>